<mxfile host="app.diagrams.net" agent="Mozilla/5.0 (X11; Linux x86_64; rv:134.0) Gecko/20100101 Firefox/134.0" version="28.2.4">
  <diagram name="Página-1" id="EQiqzQjmJVD8BEotad0g">
    <mxGraphModel dx="1678" dy="887" grid="1" gridSize="10" guides="1" tooltips="1" connect="1" arrows="1" fold="1" page="1" pageScale="1" pageWidth="827" pageHeight="1169" math="0" shadow="0">
      <root>
        <mxCell id="0" />
        <mxCell id="1" parent="0" />
        <mxCell id="lP_Lg3t0AmWNAohetcjt-1" value="&lt;div&gt;CICLISTAS&lt;/div&gt;" style="rounded=1;whiteSpace=wrap;html=1;fontSize=14;fillColor=#dae8fc;strokeColor=#6c8ebf;" parent="1" vertex="1">
          <mxGeometry x="30" y="310" width="170" height="90" as="geometry" />
        </mxCell>
        <mxCell id="lP_Lg3t0AmWNAohetcjt-3" value="&lt;div&gt;PRUEBAS&lt;/div&gt;" style="rounded=1;whiteSpace=wrap;html=1;fontSize=14;fillColor=#dae8fc;strokeColor=#6c8ebf;" parent="1" vertex="1">
          <mxGeometry x="590" y="390" width="170" height="90" as="geometry" />
        </mxCell>
        <mxCell id="lP_Lg3t0AmWNAohetcjt-65" style="edgeStyle=orthogonalEdgeStyle;rounded=0;orthogonalLoop=1;jettySize=auto;html=1;entryX=0;entryY=0.5;entryDx=0;entryDy=0;" parent="1" source="lP_Lg3t0AmWNAohetcjt-4" target="lP_Lg3t0AmWNAohetcjt-1" edge="1">
          <mxGeometry relative="1" as="geometry" />
        </mxCell>
        <mxCell id="lP_Lg3t0AmWNAohetcjt-4" value="NOMBRE" style="ellipse;whiteSpace=wrap;html=1;fillColor=#fff2cc;strokeColor=#d6b656;" parent="1" vertex="1">
          <mxGeometry x="10" y="430" width="80" height="70" as="geometry" />
        </mxCell>
        <mxCell id="lP_Lg3t0AmWNAohetcjt-15" value="" style="edgeStyle=orthogonalEdgeStyle;rounded=0;orthogonalLoop=1;jettySize=auto;html=1;entryX=0.324;entryY=0.967;entryDx=0;entryDy=0;entryPerimeter=0;" parent="1" source="lP_Lg3t0AmWNAohetcjt-5" target="lP_Lg3t0AmWNAohetcjt-1" edge="1">
          <mxGeometry relative="1" as="geometry" />
        </mxCell>
        <mxCell id="lP_Lg3t0AmWNAohetcjt-5" value="&lt;div&gt;NACIONALIDAD&lt;/div&gt;" style="ellipse;whiteSpace=wrap;html=1;fillColor=#fff2cc;strokeColor=#d6b656;" parent="1" vertex="1">
          <mxGeometry x="130" y="495" width="100" height="90" as="geometry" />
        </mxCell>
        <mxCell id="lP_Lg3t0AmWNAohetcjt-18" style="edgeStyle=orthogonalEdgeStyle;rounded=0;orthogonalLoop=1;jettySize=auto;html=1;entryX=0.141;entryY=0.011;entryDx=0;entryDy=0;entryPerimeter=0;" parent="1" source="lP_Lg3t0AmWNAohetcjt-6" target="lP_Lg3t0AmWNAohetcjt-1" edge="1">
          <mxGeometry relative="1" as="geometry" />
        </mxCell>
        <mxCell id="lP_Lg3t0AmWNAohetcjt-6" value="&lt;div&gt;F.NACIMIENTO&lt;/div&gt;" style="ellipse;whiteSpace=wrap;html=1;fillColor=#fff2cc;strokeColor=#d6b656;" parent="1" vertex="1">
          <mxGeometry x="20" y="150" width="90" height="80" as="geometry" />
        </mxCell>
        <mxCell id="lP_Lg3t0AmWNAohetcjt-8" value="NOMBRE" style="ellipse;whiteSpace=wrap;html=1;fillColor=#e1d5e7;strokeColor=#9673a6;" parent="1" vertex="1">
          <mxGeometry x="480" y="40" width="80" height="70" as="geometry" />
        </mxCell>
        <mxCell id="lP_Lg3t0AmWNAohetcjt-9" value="&lt;div&gt;NACIONALIDAD&lt;/div&gt;" style="ellipse;whiteSpace=wrap;html=1;fillColor=#e1d5e7;strokeColor=#9673a6;" parent="1" vertex="1">
          <mxGeometry x="270" y="20" width="100" height="80" as="geometry" />
        </mxCell>
        <mxCell id="lP_Lg3t0AmWNAohetcjt-12" value="" style="edgeStyle=orthogonalEdgeStyle;rounded=0;orthogonalLoop=1;jettySize=auto;html=1;entryX=0.75;entryY=1;entryDx=0;entryDy=0;" parent="1" source="lP_Lg3t0AmWNAohetcjt-10" target="lP_Lg3t0AmWNAohetcjt-63" edge="1">
          <mxGeometry relative="1" as="geometry">
            <mxPoint x="432.5" y="360" as="targetPoint" />
          </mxGeometry>
        </mxCell>
        <mxCell id="lP_Lg3t0AmWNAohetcjt-10" value="NOMBRE DIRECTOR" style="ellipse;whiteSpace=wrap;html=1;fillColor=#e1d5e7;strokeColor=#9673a6;" parent="1" vertex="1">
          <mxGeometry x="390" y="240" width="80" height="70" as="geometry" />
        </mxCell>
        <mxCell id="lP_Lg3t0AmWNAohetcjt-17" value="" style="edgeStyle=orthogonalEdgeStyle;rounded=0;orthogonalLoop=1;jettySize=auto;html=1;" parent="1" source="lP_Lg3t0AmWNAohetcjt-11" target="lP_Lg3t0AmWNAohetcjt-1" edge="1">
          <mxGeometry relative="1" as="geometry" />
        </mxCell>
        <mxCell id="lP_Lg3t0AmWNAohetcjt-11" value="FIN CONTRATO" style="ellipse;whiteSpace=wrap;html=1;fillColor=#fff2cc;strokeColor=#d6b656;" parent="1" vertex="1">
          <mxGeometry x="110" y="40" width="80" height="70" as="geometry" />
        </mxCell>
        <mxCell id="lP_Lg3t0AmWNAohetcjt-14" style="edgeStyle=orthogonalEdgeStyle;rounded=0;orthogonalLoop=1;jettySize=auto;html=1;entryX=0.054;entryY=-0.012;entryDx=0;entryDy=0;entryPerimeter=0;" parent="1" source="lP_Lg3t0AmWNAohetcjt-9" target="lP_Lg3t0AmWNAohetcjt-63" edge="1">
          <mxGeometry relative="1" as="geometry">
            <mxPoint x="395.58500000000004" y="296.29999999999995" as="targetPoint" />
          </mxGeometry>
        </mxCell>
        <mxCell id="lP_Lg3t0AmWNAohetcjt-19" value="NOMBRE PRUEBA" style="ellipse;whiteSpace=wrap;html=1;fillColor=#d5e8d4;strokeColor=#82b366;" parent="1" vertex="1">
          <mxGeometry x="650" y="540" width="80" height="70" as="geometry" />
        </mxCell>
        <mxCell id="lP_Lg3t0AmWNAohetcjt-30" value="" style="edgeStyle=orthogonalEdgeStyle;rounded=0;orthogonalLoop=1;jettySize=auto;html=1;entryX=0.988;entryY=0.578;entryDx=0;entryDy=0;entryPerimeter=0;" parent="1" source="lP_Lg3t0AmWNAohetcjt-20" target="lP_Lg3t0AmWNAohetcjt-3" edge="1">
          <mxGeometry relative="1" as="geometry" />
        </mxCell>
        <mxCell id="lP_Lg3t0AmWNAohetcjt-20" value="AÑO DE EDICION" style="ellipse;whiteSpace=wrap;html=1;fillColor=#d5e8d4;strokeColor=#82b366;" parent="1" vertex="1">
          <mxGeometry x="800" y="500" width="80" height="70" as="geometry" />
        </mxCell>
        <mxCell id="lP_Lg3t0AmWNAohetcjt-21" value="Nº ETAPAS" style="ellipse;whiteSpace=wrap;html=1;fillColor=#d5e8d4;strokeColor=#82b366;" parent="1" vertex="1">
          <mxGeometry x="790" y="400" width="80" height="70" as="geometry" />
        </mxCell>
        <mxCell id="lP_Lg3t0AmWNAohetcjt-29" value="" style="edgeStyle=orthogonalEdgeStyle;rounded=0;orthogonalLoop=1;jettySize=auto;html=1;" parent="1" source="lP_Lg3t0AmWNAohetcjt-22" target="lP_Lg3t0AmWNAohetcjt-3" edge="1">
          <mxGeometry relative="1" as="geometry" />
        </mxCell>
        <mxCell id="lP_Lg3t0AmWNAohetcjt-22" value="KM TOTALES" style="ellipse;whiteSpace=wrap;html=1;fillColor=#d5e8d4;strokeColor=#82b366;" parent="1" vertex="1">
          <mxGeometry x="680" y="270" width="80" height="70" as="geometry" />
        </mxCell>
        <mxCell id="lP_Lg3t0AmWNAohetcjt-25" value="" style="shape=flexArrow;endArrow=classic;startArrow=classic;html=1;rounded=0;fillColor=#60a917;strokeColor=#2D7600;entryX=0;entryY=1;entryDx=0;entryDy=0;" parent="1" source="lP_Lg3t0AmWNAohetcjt-1" target="SBu-QnstzUeX8URaXkje-66" edge="1">
          <mxGeometry width="100" height="100" relative="1" as="geometry">
            <mxPoint x="275" y="410" as="sourcePoint" />
            <mxPoint x="190" y="210" as="targetPoint" />
          </mxGeometry>
        </mxCell>
        <mxCell id="lP_Lg3t0AmWNAohetcjt-28" value="" style="shape=flexArrow;endArrow=classic;startArrow=classic;html=1;rounded=0;fillColor=#60a917;strokeColor=#2D7600;exitX=1;exitY=0.5;exitDx=0;exitDy=0;" parent="1" source="lP_Lg3t0AmWNAohetcjt-63" target="lP_Lg3t0AmWNAohetcjt-66" edge="1">
          <mxGeometry width="100" height="100" relative="1" as="geometry">
            <mxPoint x="485" y="309" as="sourcePoint" />
            <mxPoint x="580" y="230" as="targetPoint" />
          </mxGeometry>
        </mxCell>
        <mxCell id="lP_Lg3t0AmWNAohetcjt-32" style="edgeStyle=orthogonalEdgeStyle;rounded=0;orthogonalLoop=1;jettySize=auto;html=1;entryX=0.869;entryY=-0.041;entryDx=0;entryDy=0;entryPerimeter=0;" parent="1" source="lP_Lg3t0AmWNAohetcjt-21" target="lP_Lg3t0AmWNAohetcjt-3" edge="1">
          <mxGeometry relative="1" as="geometry" />
        </mxCell>
        <mxCell id="lP_Lg3t0AmWNAohetcjt-33" style="edgeStyle=orthogonalEdgeStyle;rounded=0;orthogonalLoop=1;jettySize=auto;html=1;entryX=0.822;entryY=0.996;entryDx=0;entryDy=0;entryPerimeter=0;" parent="1" source="lP_Lg3t0AmWNAohetcjt-19" target="lP_Lg3t0AmWNAohetcjt-3" edge="1">
          <mxGeometry relative="1" as="geometry" />
        </mxCell>
        <mxCell id="lP_Lg3t0AmWNAohetcjt-36" value="PUESTO/GANADOR" style="rhombus;whiteSpace=wrap;html=1;fillColor=#ffcc99;strokeColor=#36393d;" parent="1" vertex="1">
          <mxGeometry x="350" y="490" width="120" height="115" as="geometry" />
        </mxCell>
        <mxCell id="lP_Lg3t0AmWNAohetcjt-45" value="" style="shape=flexArrow;endArrow=classic;startArrow=classic;html=1;rounded=0;fillColor=#60a917;strokeColor=#2D7600;exitX=1;exitY=0.5;exitDx=0;exitDy=0;entryX=0;entryY=1;entryDx=0;entryDy=0;" parent="1" source="lP_Lg3t0AmWNAohetcjt-36" target="lP_Lg3t0AmWNAohetcjt-3" edge="1">
          <mxGeometry width="100" height="100" relative="1" as="geometry">
            <mxPoint x="530" y="660" as="sourcePoint" />
            <mxPoint x="640" y="480" as="targetPoint" />
          </mxGeometry>
        </mxCell>
        <mxCell id="lP_Lg3t0AmWNAohetcjt-53" style="edgeStyle=orthogonalEdgeStyle;rounded=0;orthogonalLoop=1;jettySize=auto;html=1;entryX=0.5;entryY=1;entryDx=0;entryDy=0;exitX=0.633;exitY=0.067;exitDx=0;exitDy=0;exitPerimeter=0;" parent="1" source="lP_Lg3t0AmWNAohetcjt-54" target="lP_Lg3t0AmWNAohetcjt-1" edge="1">
          <mxGeometry relative="1" as="geometry">
            <mxPoint x="297.5" y="390" as="sourcePoint" />
            <Array as="points">
              <mxPoint x="100" y="534" />
              <mxPoint x="100" y="455" />
              <mxPoint x="125" y="455" />
            </Array>
          </mxGeometry>
        </mxCell>
        <mxCell id="lP_Lg3t0AmWNAohetcjt-54" value="ID" style="ellipse;whiteSpace=wrap;html=1;fillColor=#fff2cc;strokeColor=#d6b656;" parent="1" vertex="1">
          <mxGeometry x="50" y="530" width="60" height="60" as="geometry" />
        </mxCell>
        <mxCell id="lP_Lg3t0AmWNAohetcjt-56" style="edgeStyle=orthogonalEdgeStyle;rounded=0;orthogonalLoop=1;jettySize=auto;html=1;entryX=0.5;entryY=0;entryDx=0;entryDy=0;" parent="1" source="lP_Lg3t0AmWNAohetcjt-55" target="lP_Lg3t0AmWNAohetcjt-63" edge="1">
          <mxGeometry relative="1" as="geometry">
            <mxPoint x="432.5" y="260" as="targetPoint" />
          </mxGeometry>
        </mxCell>
        <mxCell id="lP_Lg3t0AmWNAohetcjt-55" value="ID" style="ellipse;whiteSpace=wrap;html=1;fillColor=#e1d5e7;strokeColor=#9673a6;" parent="1" vertex="1">
          <mxGeometry x="400" y="20" width="60" height="50" as="geometry" />
        </mxCell>
        <mxCell id="lP_Lg3t0AmWNAohetcjt-57" value="ID" style="ellipse;whiteSpace=wrap;html=1;fillColor=#d5e8d4;strokeColor=#82b366;" parent="1" vertex="1">
          <mxGeometry x="777" y="330" width="50" height="50" as="geometry" />
        </mxCell>
        <mxCell id="lP_Lg3t0AmWNAohetcjt-58" style="edgeStyle=orthogonalEdgeStyle;rounded=0;orthogonalLoop=1;jettySize=auto;html=1;entryX=0.649;entryY=-0.011;entryDx=0;entryDy=0;entryPerimeter=0;" parent="1" source="lP_Lg3t0AmWNAohetcjt-57" target="lP_Lg3t0AmWNAohetcjt-3" edge="1">
          <mxGeometry relative="1" as="geometry" />
        </mxCell>
        <mxCell id="lP_Lg3t0AmWNAohetcjt-62" value="" style="shape=flexArrow;endArrow=classic;startArrow=classic;html=1;rounded=0;fillColor=#60a917;strokeColor=#2D7600;entryX=0.935;entryY=0.967;entryDx=0;entryDy=0;entryPerimeter=0;exitX=0;exitY=0.5;exitDx=0;exitDy=0;" parent="1" source="lP_Lg3t0AmWNAohetcjt-36" target="lP_Lg3t0AmWNAohetcjt-1" edge="1">
          <mxGeometry width="100" height="100" relative="1" as="geometry">
            <mxPoint x="310" y="846" as="sourcePoint" />
            <mxPoint x="459" y="540" as="targetPoint" />
          </mxGeometry>
        </mxCell>
        <mxCell id="lP_Lg3t0AmWNAohetcjt-63" value="EQUIPO" style="rounded=1;whiteSpace=wrap;html=1;fontSize=14;fillColor=#dae8fc;strokeColor=#6c8ebf;" parent="1" vertex="1">
          <mxGeometry x="365" y="130" width="130" height="80" as="geometry" />
        </mxCell>
        <mxCell id="lP_Lg3t0AmWNAohetcjt-66" value="PARTICIPA" style="rhombus;whiteSpace=wrap;html=1;fillColor=#ffcc99;strokeColor=#36393d;" parent="1" vertex="1">
          <mxGeometry x="560" y="210" width="80" height="80" as="geometry" />
        </mxCell>
        <mxCell id="lP_Lg3t0AmWNAohetcjt-67" value="" style="shape=flexArrow;endArrow=classic;startArrow=classic;html=1;rounded=0;fillColor=#60a917;strokeColor=#2D7600;exitX=0.5;exitY=1;exitDx=0;exitDy=0;entryX=0.25;entryY=0;entryDx=0;entryDy=0;width=9;startSize=7.89;" parent="1" source="lP_Lg3t0AmWNAohetcjt-66" target="lP_Lg3t0AmWNAohetcjt-3" edge="1">
          <mxGeometry width="100" height="100" relative="1" as="geometry">
            <mxPoint x="620" y="270" as="sourcePoint" />
            <mxPoint x="705" y="350" as="targetPoint" />
          </mxGeometry>
        </mxCell>
        <mxCell id="lP_Lg3t0AmWNAohetcjt-69" style="edgeStyle=orthogonalEdgeStyle;rounded=0;orthogonalLoop=1;jettySize=auto;html=1;entryX=1;entryY=0;entryDx=0;entryDy=0;" parent="1" source="lP_Lg3t0AmWNAohetcjt-68" target="lP_Lg3t0AmWNAohetcjt-66" edge="1">
          <mxGeometry relative="1" as="geometry" />
        </mxCell>
        <mxCell id="lP_Lg3t0AmWNAohetcjt-68" value="PUESTO" style="ellipse;whiteSpace=wrap;html=1;fillColor=#d5e8d4;strokeColor=#82b366;" parent="1" vertex="1">
          <mxGeometry x="640" y="120" width="80" height="70" as="geometry" />
        </mxCell>
        <mxCell id="SBu-QnstzUeX8URaXkje-1" style="edgeStyle=orthogonalEdgeStyle;rounded=0;orthogonalLoop=1;jettySize=auto;html=1;entryX=0.985;entryY=0.363;entryDx=0;entryDy=0;entryPerimeter=0;" edge="1" parent="1" source="lP_Lg3t0AmWNAohetcjt-8" target="lP_Lg3t0AmWNAohetcjt-63">
          <mxGeometry relative="1" as="geometry">
            <Array as="points">
              <mxPoint x="520" y="150" />
              <mxPoint x="493" y="150" />
            </Array>
          </mxGeometry>
        </mxCell>
        <mxCell id="SBu-QnstzUeX8URaXkje-12" value="" style="shape=table;startSize=0;container=1;collapsible=0;childLayout=tableLayout;" vertex="1" parent="1">
          <mxGeometry x="150" y="680" width="410" height="80" as="geometry" />
        </mxCell>
        <mxCell id="SBu-QnstzUeX8URaXkje-13" value="" style="shape=tableRow;horizontal=0;startSize=0;swimlaneHead=0;swimlaneBody=0;strokeColor=inherit;top=0;left=0;bottom=0;right=0;collapsible=0;dropTarget=0;fillColor=none;points=[[0,0.5],[1,0.5]];portConstraint=eastwest;" vertex="1" parent="SBu-QnstzUeX8URaXkje-12">
          <mxGeometry width="410" height="40" as="geometry" />
        </mxCell>
        <mxCell id="SBu-QnstzUeX8URaXkje-14" value="ID" style="shape=partialRectangle;html=1;whiteSpace=wrap;connectable=0;strokeColor=inherit;overflow=hidden;fillColor=none;top=0;left=0;bottom=0;right=0;pointerEvents=1;" vertex="1" parent="SBu-QnstzUeX8URaXkje-13">
          <mxGeometry width="59" height="40" as="geometry">
            <mxRectangle width="59" height="40" as="alternateBounds" />
          </mxGeometry>
        </mxCell>
        <mxCell id="SBu-QnstzUeX8URaXkje-15" value="NOMBRE" style="shape=partialRectangle;html=1;whiteSpace=wrap;connectable=0;strokeColor=inherit;overflow=hidden;fillColor=none;top=0;left=0;bottom=0;right=0;pointerEvents=1;" vertex="1" parent="SBu-QnstzUeX8URaXkje-13">
          <mxGeometry x="59" width="58" height="40" as="geometry">
            <mxRectangle width="58" height="40" as="alternateBounds" />
          </mxGeometry>
        </mxCell>
        <mxCell id="SBu-QnstzUeX8URaXkje-16" value="NACIONALIDAD" style="shape=partialRectangle;html=1;whiteSpace=wrap;connectable=0;strokeColor=inherit;overflow=hidden;fillColor=none;top=0;left=0;bottom=0;right=0;pointerEvents=1;fontSize=10;" vertex="1" parent="SBu-QnstzUeX8URaXkje-13">
          <mxGeometry x="117" width="88" height="40" as="geometry">
            <mxRectangle width="88" height="40" as="alternateBounds" />
          </mxGeometry>
        </mxCell>
        <mxCell id="SBu-QnstzUeX8URaXkje-17" value="F. NACIEMIENTO" style="shape=partialRectangle;html=1;whiteSpace=wrap;connectable=0;strokeColor=inherit;overflow=hidden;fillColor=none;top=0;left=0;bottom=0;right=0;pointerEvents=1;" vertex="1" parent="SBu-QnstzUeX8URaXkje-13">
          <mxGeometry x="205" width="88" height="40" as="geometry">
            <mxRectangle width="88" height="40" as="alternateBounds" />
          </mxGeometry>
        </mxCell>
        <mxCell id="SBu-QnstzUeX8URaXkje-18" value="ID EQUIPO" style="shape=partialRectangle;html=1;whiteSpace=wrap;connectable=0;strokeColor=inherit;overflow=hidden;fillColor=none;top=0;left=0;bottom=0;right=0;pointerEvents=1;fontSize=10;" vertex="1" parent="SBu-QnstzUeX8URaXkje-13">
          <mxGeometry x="293" width="57" height="40" as="geometry">
            <mxRectangle width="57" height="40" as="alternateBounds" />
          </mxGeometry>
        </mxCell>
        <mxCell id="SBu-QnstzUeX8URaXkje-19" value="" style="shape=partialRectangle;html=1;whiteSpace=wrap;connectable=0;strokeColor=inherit;overflow=hidden;fillColor=none;top=0;left=0;bottom=0;right=0;pointerEvents=1;" vertex="1" parent="SBu-QnstzUeX8URaXkje-13">
          <mxGeometry x="350" width="30" height="40" as="geometry">
            <mxRectangle width="30" height="40" as="alternateBounds" />
          </mxGeometry>
        </mxCell>
        <mxCell id="SBu-QnstzUeX8URaXkje-20" value="" style="shape=partialRectangle;html=1;whiteSpace=wrap;connectable=0;strokeColor=inherit;overflow=hidden;fillColor=none;top=0;left=0;bottom=0;right=0;pointerEvents=1;" vertex="1" parent="SBu-QnstzUeX8URaXkje-13">
          <mxGeometry x="380" width="30" height="40" as="geometry">
            <mxRectangle width="30" height="40" as="alternateBounds" />
          </mxGeometry>
        </mxCell>
        <mxCell id="SBu-QnstzUeX8URaXkje-21" value="" style="shape=tableRow;horizontal=0;startSize=0;swimlaneHead=0;swimlaneBody=0;strokeColor=inherit;top=0;left=0;bottom=0;right=0;collapsible=0;dropTarget=0;fillColor=none;points=[[0,0.5],[1,0.5]];portConstraint=eastwest;" vertex="1" parent="SBu-QnstzUeX8URaXkje-12">
          <mxGeometry y="40" width="410" height="40" as="geometry" />
        </mxCell>
        <mxCell id="SBu-QnstzUeX8URaXkje-22" value="" style="shape=partialRectangle;html=1;whiteSpace=wrap;connectable=0;strokeColor=inherit;overflow=hidden;fillColor=none;top=0;left=0;bottom=0;right=0;pointerEvents=1;" vertex="1" parent="SBu-QnstzUeX8URaXkje-21">
          <mxGeometry width="59" height="40" as="geometry">
            <mxRectangle width="59" height="40" as="alternateBounds" />
          </mxGeometry>
        </mxCell>
        <mxCell id="SBu-QnstzUeX8URaXkje-23" value="" style="shape=partialRectangle;html=1;whiteSpace=wrap;connectable=0;strokeColor=inherit;overflow=hidden;fillColor=none;top=0;left=0;bottom=0;right=0;pointerEvents=1;" vertex="1" parent="SBu-QnstzUeX8URaXkje-21">
          <mxGeometry x="59" width="58" height="40" as="geometry">
            <mxRectangle width="58" height="40" as="alternateBounds" />
          </mxGeometry>
        </mxCell>
        <mxCell id="SBu-QnstzUeX8URaXkje-24" value="" style="shape=partialRectangle;html=1;whiteSpace=wrap;connectable=0;strokeColor=inherit;overflow=hidden;fillColor=none;top=0;left=0;bottom=0;right=0;pointerEvents=1;" vertex="1" parent="SBu-QnstzUeX8URaXkje-21">
          <mxGeometry x="117" width="88" height="40" as="geometry">
            <mxRectangle width="88" height="40" as="alternateBounds" />
          </mxGeometry>
        </mxCell>
        <mxCell id="SBu-QnstzUeX8URaXkje-25" value="" style="shape=partialRectangle;html=1;whiteSpace=wrap;connectable=0;strokeColor=inherit;overflow=hidden;fillColor=none;top=0;left=0;bottom=0;right=0;pointerEvents=1;" vertex="1" parent="SBu-QnstzUeX8URaXkje-21">
          <mxGeometry x="205" width="88" height="40" as="geometry">
            <mxRectangle width="88" height="40" as="alternateBounds" />
          </mxGeometry>
        </mxCell>
        <mxCell id="SBu-QnstzUeX8URaXkje-26" value="" style="shape=partialRectangle;html=1;whiteSpace=wrap;connectable=0;strokeColor=inherit;overflow=hidden;fillColor=none;top=0;left=0;bottom=0;right=0;pointerEvents=1;" vertex="1" parent="SBu-QnstzUeX8URaXkje-21">
          <mxGeometry x="293" width="57" height="40" as="geometry">
            <mxRectangle width="57" height="40" as="alternateBounds" />
          </mxGeometry>
        </mxCell>
        <mxCell id="SBu-QnstzUeX8URaXkje-27" value="" style="shape=partialRectangle;html=1;whiteSpace=wrap;connectable=0;strokeColor=inherit;overflow=hidden;fillColor=none;top=0;left=0;bottom=0;right=0;pointerEvents=1;" vertex="1" parent="SBu-QnstzUeX8URaXkje-21">
          <mxGeometry x="350" width="30" height="40" as="geometry">
            <mxRectangle width="30" height="40" as="alternateBounds" />
          </mxGeometry>
        </mxCell>
        <mxCell id="SBu-QnstzUeX8URaXkje-28" value="" style="shape=partialRectangle;html=1;whiteSpace=wrap;connectable=0;strokeColor=inherit;overflow=hidden;fillColor=none;top=0;left=0;bottom=0;right=0;pointerEvents=1;" vertex="1" parent="SBu-QnstzUeX8URaXkje-21">
          <mxGeometry x="380" width="30" height="40" as="geometry">
            <mxRectangle width="30" height="40" as="alternateBounds" />
          </mxGeometry>
        </mxCell>
        <mxCell id="SBu-QnstzUeX8URaXkje-29" value="" style="shape=table;startSize=0;container=1;collapsible=0;childLayout=tableLayout;" vertex="1" parent="1">
          <mxGeometry x="150" y="840" width="410" height="80" as="geometry" />
        </mxCell>
        <mxCell id="SBu-QnstzUeX8URaXkje-30" value="" style="shape=tableRow;horizontal=0;startSize=0;swimlaneHead=0;swimlaneBody=0;strokeColor=inherit;top=0;left=0;bottom=0;right=0;collapsible=0;dropTarget=0;fillColor=none;points=[[0,0.5],[1,0.5]];portConstraint=eastwest;" vertex="1" parent="SBu-QnstzUeX8URaXkje-29">
          <mxGeometry width="410" height="40" as="geometry" />
        </mxCell>
        <mxCell id="SBu-QnstzUeX8URaXkje-31" value="ID " style="shape=partialRectangle;html=1;whiteSpace=wrap;connectable=0;strokeColor=inherit;overflow=hidden;fillColor=none;top=0;left=0;bottom=0;right=0;pointerEvents=1;" vertex="1" parent="SBu-QnstzUeX8URaXkje-30">
          <mxGeometry width="59" height="40" as="geometry">
            <mxRectangle width="59" height="40" as="alternateBounds" />
          </mxGeometry>
        </mxCell>
        <mxCell id="SBu-QnstzUeX8URaXkje-32" value="NOMBRE" style="shape=partialRectangle;html=1;whiteSpace=wrap;connectable=0;strokeColor=inherit;overflow=hidden;fillColor=none;top=0;left=0;bottom=0;right=0;pointerEvents=1;" vertex="1" parent="SBu-QnstzUeX8URaXkje-30">
          <mxGeometry x="59" width="58" height="40" as="geometry">
            <mxRectangle width="58" height="40" as="alternateBounds" />
          </mxGeometry>
        </mxCell>
        <mxCell id="SBu-QnstzUeX8URaXkje-33" value="NACIONALIDAD" style="shape=partialRectangle;html=1;whiteSpace=wrap;connectable=0;strokeColor=inherit;overflow=hidden;fillColor=none;top=0;left=0;bottom=0;right=0;pointerEvents=1;fontSize=10;" vertex="1" parent="SBu-QnstzUeX8URaXkje-30">
          <mxGeometry x="117" width="88" height="40" as="geometry">
            <mxRectangle width="88" height="40" as="alternateBounds" />
          </mxGeometry>
        </mxCell>
        <mxCell id="SBu-QnstzUeX8URaXkje-34" value="F. CREACION" style="shape=partialRectangle;html=1;whiteSpace=wrap;connectable=0;strokeColor=inherit;overflow=hidden;fillColor=none;top=0;left=0;bottom=0;right=0;pointerEvents=1;" vertex="1" parent="SBu-QnstzUeX8URaXkje-30">
          <mxGeometry x="205" width="88" height="40" as="geometry">
            <mxRectangle width="88" height="40" as="alternateBounds" />
          </mxGeometry>
        </mxCell>
        <mxCell id="SBu-QnstzUeX8URaXkje-35" value="" style="shape=partialRectangle;html=1;whiteSpace=wrap;connectable=0;strokeColor=inherit;overflow=hidden;fillColor=none;top=0;left=0;bottom=0;right=0;pointerEvents=1;fontSize=10;" vertex="1" parent="SBu-QnstzUeX8URaXkje-30">
          <mxGeometry x="293" width="58" height="40" as="geometry">
            <mxRectangle width="58" height="40" as="alternateBounds" />
          </mxGeometry>
        </mxCell>
        <mxCell id="SBu-QnstzUeX8URaXkje-36" value="" style="shape=partialRectangle;html=1;whiteSpace=wrap;connectable=0;strokeColor=inherit;overflow=hidden;fillColor=none;top=0;left=0;bottom=0;right=0;pointerEvents=1;" vertex="1" parent="SBu-QnstzUeX8URaXkje-30">
          <mxGeometry x="351" width="30" height="40" as="geometry">
            <mxRectangle width="30" height="40" as="alternateBounds" />
          </mxGeometry>
        </mxCell>
        <mxCell id="SBu-QnstzUeX8URaXkje-37" value="" style="shape=partialRectangle;html=1;whiteSpace=wrap;connectable=0;strokeColor=inherit;overflow=hidden;fillColor=none;top=0;left=0;bottom=0;right=0;pointerEvents=1;" vertex="1" parent="SBu-QnstzUeX8URaXkje-30">
          <mxGeometry x="381" width="29" height="40" as="geometry">
            <mxRectangle width="29" height="40" as="alternateBounds" />
          </mxGeometry>
        </mxCell>
        <mxCell id="SBu-QnstzUeX8URaXkje-38" value="" style="shape=tableRow;horizontal=0;startSize=0;swimlaneHead=0;swimlaneBody=0;strokeColor=inherit;top=0;left=0;bottom=0;right=0;collapsible=0;dropTarget=0;fillColor=none;points=[[0,0.5],[1,0.5]];portConstraint=eastwest;" vertex="1" parent="SBu-QnstzUeX8URaXkje-29">
          <mxGeometry y="40" width="410" height="40" as="geometry" />
        </mxCell>
        <mxCell id="SBu-QnstzUeX8URaXkje-39" value="" style="shape=partialRectangle;html=1;whiteSpace=wrap;connectable=0;strokeColor=inherit;overflow=hidden;fillColor=none;top=0;left=0;bottom=0;right=0;pointerEvents=1;" vertex="1" parent="SBu-QnstzUeX8URaXkje-38">
          <mxGeometry width="59" height="40" as="geometry">
            <mxRectangle width="59" height="40" as="alternateBounds" />
          </mxGeometry>
        </mxCell>
        <mxCell id="SBu-QnstzUeX8URaXkje-40" value="" style="shape=partialRectangle;html=1;whiteSpace=wrap;connectable=0;strokeColor=inherit;overflow=hidden;fillColor=none;top=0;left=0;bottom=0;right=0;pointerEvents=1;" vertex="1" parent="SBu-QnstzUeX8URaXkje-38">
          <mxGeometry x="59" width="58" height="40" as="geometry">
            <mxRectangle width="58" height="40" as="alternateBounds" />
          </mxGeometry>
        </mxCell>
        <mxCell id="SBu-QnstzUeX8URaXkje-41" value="" style="shape=partialRectangle;html=1;whiteSpace=wrap;connectable=0;strokeColor=inherit;overflow=hidden;fillColor=none;top=0;left=0;bottom=0;right=0;pointerEvents=1;" vertex="1" parent="SBu-QnstzUeX8URaXkje-38">
          <mxGeometry x="117" width="88" height="40" as="geometry">
            <mxRectangle width="88" height="40" as="alternateBounds" />
          </mxGeometry>
        </mxCell>
        <mxCell id="SBu-QnstzUeX8URaXkje-42" value="" style="shape=partialRectangle;html=1;whiteSpace=wrap;connectable=0;strokeColor=inherit;overflow=hidden;fillColor=none;top=0;left=0;bottom=0;right=0;pointerEvents=1;" vertex="1" parent="SBu-QnstzUeX8URaXkje-38">
          <mxGeometry x="205" width="88" height="40" as="geometry">
            <mxRectangle width="88" height="40" as="alternateBounds" />
          </mxGeometry>
        </mxCell>
        <mxCell id="SBu-QnstzUeX8URaXkje-43" value="" style="shape=partialRectangle;html=1;whiteSpace=wrap;connectable=0;strokeColor=inherit;overflow=hidden;fillColor=none;top=0;left=0;bottom=0;right=0;pointerEvents=1;" vertex="1" parent="SBu-QnstzUeX8URaXkje-38">
          <mxGeometry x="293" width="58" height="40" as="geometry">
            <mxRectangle width="58" height="40" as="alternateBounds" />
          </mxGeometry>
        </mxCell>
        <mxCell id="SBu-QnstzUeX8URaXkje-44" value="" style="shape=partialRectangle;html=1;whiteSpace=wrap;connectable=0;strokeColor=inherit;overflow=hidden;fillColor=none;top=0;left=0;bottom=0;right=0;pointerEvents=1;" vertex="1" parent="SBu-QnstzUeX8URaXkje-38">
          <mxGeometry x="351" width="30" height="40" as="geometry">
            <mxRectangle width="30" height="40" as="alternateBounds" />
          </mxGeometry>
        </mxCell>
        <mxCell id="SBu-QnstzUeX8URaXkje-45" value="" style="shape=partialRectangle;html=1;whiteSpace=wrap;connectable=0;strokeColor=inherit;overflow=hidden;fillColor=none;top=0;left=0;bottom=0;right=0;pointerEvents=1;" vertex="1" parent="SBu-QnstzUeX8URaXkje-38">
          <mxGeometry x="381" width="29" height="40" as="geometry">
            <mxRectangle width="29" height="40" as="alternateBounds" />
          </mxGeometry>
        </mxCell>
        <mxCell id="SBu-QnstzUeX8URaXkje-46" value="CICLISTA" style="rounded=1;whiteSpace=wrap;html=1;fillColor=#cce5ff;strokeColor=#36393d;" vertex="1" parent="1">
          <mxGeometry x="150" y="620" width="120" height="60" as="geometry" />
        </mxCell>
        <mxCell id="SBu-QnstzUeX8URaXkje-47" value="EQUIPOS" style="rounded=1;whiteSpace=wrap;html=1;fillColor=#cce5ff;strokeColor=#36393d;" vertex="1" parent="1">
          <mxGeometry x="150" y="780" width="120" height="60" as="geometry" />
        </mxCell>
        <mxCell id="SBu-QnstzUeX8URaXkje-48" value="PRUEBAS" style="rounded=1;whiteSpace=wrap;html=1;fillColor=#cce5ff;strokeColor=#36393d;" vertex="1" parent="1">
          <mxGeometry x="150" y="950" width="120" height="60" as="geometry" />
        </mxCell>
        <mxCell id="SBu-QnstzUeX8URaXkje-49" value="" style="shape=table;startSize=0;container=1;collapsible=0;childLayout=tableLayout;" vertex="1" parent="1">
          <mxGeometry x="150" y="1010" width="500" height="80" as="geometry" />
        </mxCell>
        <mxCell id="SBu-QnstzUeX8URaXkje-50" value="" style="shape=tableRow;horizontal=0;startSize=0;swimlaneHead=0;swimlaneBody=0;strokeColor=inherit;top=0;left=0;bottom=0;right=0;collapsible=0;dropTarget=0;fillColor=none;points=[[0,0.5],[1,0.5]];portConstraint=eastwest;" vertex="1" parent="SBu-QnstzUeX8URaXkje-49">
          <mxGeometry width="500" height="40" as="geometry" />
        </mxCell>
        <mxCell id="SBu-QnstzUeX8URaXkje-51" value="ID" style="shape=partialRectangle;html=1;whiteSpace=wrap;connectable=0;strokeColor=inherit;overflow=hidden;fillColor=none;top=0;left=0;bottom=0;right=0;pointerEvents=1;" vertex="1" parent="SBu-QnstzUeX8URaXkje-50">
          <mxGeometry width="59" height="40" as="geometry">
            <mxRectangle width="59" height="40" as="alternateBounds" />
          </mxGeometry>
        </mxCell>
        <mxCell id="SBu-QnstzUeX8URaXkje-52" value="AÑO" style="shape=partialRectangle;html=1;whiteSpace=wrap;connectable=0;strokeColor=inherit;overflow=hidden;fillColor=none;top=0;left=0;bottom=0;right=0;pointerEvents=1;" vertex="1" parent="SBu-QnstzUeX8URaXkje-50">
          <mxGeometry x="59" width="58" height="40" as="geometry">
            <mxRectangle width="58" height="40" as="alternateBounds" />
          </mxGeometry>
        </mxCell>
        <mxCell id="SBu-QnstzUeX8URaXkje-53" value="Nº ETAPAS" style="shape=partialRectangle;html=1;whiteSpace=wrap;connectable=0;strokeColor=inherit;overflow=hidden;fillColor=none;top=0;left=0;bottom=0;right=0;pointerEvents=1;fontSize=10;" vertex="1" parent="SBu-QnstzUeX8URaXkje-50">
          <mxGeometry x="117" width="88" height="40" as="geometry">
            <mxRectangle width="88" height="40" as="alternateBounds" />
          </mxGeometry>
        </mxCell>
        <mxCell id="SBu-QnstzUeX8URaXkje-54" value="KM TOTALES" style="shape=partialRectangle;html=1;whiteSpace=wrap;connectable=0;strokeColor=inherit;overflow=hidden;fillColor=none;top=0;left=0;bottom=0;right=0;pointerEvents=1;" vertex="1" parent="SBu-QnstzUeX8URaXkje-50">
          <mxGeometry x="205" width="75" height="40" as="geometry">
            <mxRectangle width="75" height="40" as="alternateBounds" />
          </mxGeometry>
        </mxCell>
        <mxCell id="SBu-QnstzUeX8URaXkje-55" value="NOMBRE PRUEBA" style="shape=partialRectangle;html=1;whiteSpace=wrap;connectable=0;strokeColor=inherit;overflow=hidden;fillColor=none;top=0;left=0;bottom=0;right=0;pointerEvents=1;fontSize=10;" vertex="1" parent="SBu-QnstzUeX8URaXkje-50">
          <mxGeometry x="280" width="71" height="40" as="geometry">
            <mxRectangle width="71" height="40" as="alternateBounds" />
          </mxGeometry>
        </mxCell>
        <mxCell id="SBu-QnstzUeX8URaXkje-56" value="ID EQUIPOS" style="shape=partialRectangle;html=1;whiteSpace=wrap;connectable=0;strokeColor=inherit;overflow=hidden;fillColor=none;top=0;left=0;bottom=0;right=0;pointerEvents=1;" vertex="1" parent="SBu-QnstzUeX8URaXkje-50">
          <mxGeometry x="351" width="59" height="40" as="geometry">
            <mxRectangle width="59" height="40" as="alternateBounds" />
          </mxGeometry>
        </mxCell>
        <mxCell id="SBu-QnstzUeX8URaXkje-57" value="ID PUESTO/GANADOR" style="shape=partialRectangle;html=1;whiteSpace=wrap;connectable=0;strokeColor=inherit;overflow=hidden;fillColor=none;top=0;left=0;bottom=0;right=0;pointerEvents=1;" vertex="1" parent="SBu-QnstzUeX8URaXkje-50">
          <mxGeometry x="410" width="90" height="40" as="geometry">
            <mxRectangle width="90" height="40" as="alternateBounds" />
          </mxGeometry>
        </mxCell>
        <mxCell id="SBu-QnstzUeX8URaXkje-58" value="" style="shape=tableRow;horizontal=0;startSize=0;swimlaneHead=0;swimlaneBody=0;strokeColor=inherit;top=0;left=0;bottom=0;right=0;collapsible=0;dropTarget=0;fillColor=none;points=[[0,0.5],[1,0.5]];portConstraint=eastwest;" vertex="1" parent="SBu-QnstzUeX8URaXkje-49">
          <mxGeometry y="40" width="500" height="40" as="geometry" />
        </mxCell>
        <mxCell id="SBu-QnstzUeX8URaXkje-59" value="" style="shape=partialRectangle;html=1;whiteSpace=wrap;connectable=0;strokeColor=inherit;overflow=hidden;fillColor=none;top=0;left=0;bottom=0;right=0;pointerEvents=1;" vertex="1" parent="SBu-QnstzUeX8URaXkje-58">
          <mxGeometry width="59" height="40" as="geometry">
            <mxRectangle width="59" height="40" as="alternateBounds" />
          </mxGeometry>
        </mxCell>
        <mxCell id="SBu-QnstzUeX8URaXkje-60" value="" style="shape=partialRectangle;html=1;whiteSpace=wrap;connectable=0;strokeColor=inherit;overflow=hidden;fillColor=none;top=0;left=0;bottom=0;right=0;pointerEvents=1;" vertex="1" parent="SBu-QnstzUeX8URaXkje-58">
          <mxGeometry x="59" width="58" height="40" as="geometry">
            <mxRectangle width="58" height="40" as="alternateBounds" />
          </mxGeometry>
        </mxCell>
        <mxCell id="SBu-QnstzUeX8URaXkje-61" value="" style="shape=partialRectangle;html=1;whiteSpace=wrap;connectable=0;strokeColor=inherit;overflow=hidden;fillColor=none;top=0;left=0;bottom=0;right=0;pointerEvents=1;" vertex="1" parent="SBu-QnstzUeX8URaXkje-58">
          <mxGeometry x="117" width="88" height="40" as="geometry">
            <mxRectangle width="88" height="40" as="alternateBounds" />
          </mxGeometry>
        </mxCell>
        <mxCell id="SBu-QnstzUeX8URaXkje-62" value="" style="shape=partialRectangle;html=1;whiteSpace=wrap;connectable=0;strokeColor=inherit;overflow=hidden;fillColor=none;top=0;left=0;bottom=0;right=0;pointerEvents=1;" vertex="1" parent="SBu-QnstzUeX8URaXkje-58">
          <mxGeometry x="205" width="75" height="40" as="geometry">
            <mxRectangle width="75" height="40" as="alternateBounds" />
          </mxGeometry>
        </mxCell>
        <mxCell id="SBu-QnstzUeX8URaXkje-63" value="" style="shape=partialRectangle;html=1;whiteSpace=wrap;connectable=0;strokeColor=inherit;overflow=hidden;fillColor=none;top=0;left=0;bottom=0;right=0;pointerEvents=1;" vertex="1" parent="SBu-QnstzUeX8URaXkje-58">
          <mxGeometry x="280" width="71" height="40" as="geometry">
            <mxRectangle width="71" height="40" as="alternateBounds" />
          </mxGeometry>
        </mxCell>
        <mxCell id="SBu-QnstzUeX8URaXkje-64" value="" style="shape=partialRectangle;html=1;whiteSpace=wrap;connectable=0;strokeColor=inherit;overflow=hidden;fillColor=none;top=0;left=0;bottom=0;right=0;pointerEvents=1;" vertex="1" parent="SBu-QnstzUeX8URaXkje-58">
          <mxGeometry x="351" width="59" height="40" as="geometry">
            <mxRectangle width="59" height="40" as="alternateBounds" />
          </mxGeometry>
        </mxCell>
        <mxCell id="SBu-QnstzUeX8URaXkje-65" value="" style="shape=partialRectangle;html=1;whiteSpace=wrap;connectable=0;strokeColor=inherit;overflow=hidden;fillColor=none;top=0;left=0;bottom=0;right=0;pointerEvents=1;" vertex="1" parent="SBu-QnstzUeX8URaXkje-58">
          <mxGeometry x="410" width="90" height="40" as="geometry">
            <mxRectangle width="90" height="40" as="alternateBounds" />
          </mxGeometry>
        </mxCell>
        <mxCell id="SBu-QnstzUeX8URaXkje-66" value="PERTENECE" style="rhombus;whiteSpace=wrap;html=1;fillColor=#ffcc99;strokeColor=#36393d;" vertex="1" parent="1">
          <mxGeometry x="190" y="145" width="90" height="95" as="geometry" />
        </mxCell>
        <mxCell id="SBu-QnstzUeX8URaXkje-67" value="" style="shape=flexArrow;endArrow=classic;startArrow=classic;html=1;rounded=0;fillColor=#60a917;strokeColor=#2D7600;entryX=0;entryY=0.5;entryDx=0;entryDy=0;exitX=1;exitY=0.5;exitDx=0;exitDy=0;" edge="1" parent="1" source="SBu-QnstzUeX8URaXkje-66" target="lP_Lg3t0AmWNAohetcjt-63">
          <mxGeometry width="100" height="100" relative="1" as="geometry">
            <mxPoint x="300" y="180" as="sourcePoint" />
            <mxPoint x="390" y="90" as="targetPoint" />
          </mxGeometry>
        </mxCell>
        <mxCell id="SBu-QnstzUeX8URaXkje-70" value="F. INICIO CONTRATO" style="ellipse;whiteSpace=wrap;html=1;fillColor=#ffff88;strokeColor=#36393d;" vertex="1" parent="1">
          <mxGeometry x="270" y="240" width="80" height="70" as="geometry" />
        </mxCell>
        <mxCell id="SBu-QnstzUeX8URaXkje-72" style="edgeStyle=orthogonalEdgeStyle;rounded=0;orthogonalLoop=1;jettySize=auto;html=1;entryX=0.889;entryY=0.684;entryDx=0;entryDy=0;entryPerimeter=0;" edge="1" parent="1" source="SBu-QnstzUeX8URaXkje-70" target="SBu-QnstzUeX8URaXkje-66">
          <mxGeometry relative="1" as="geometry" />
        </mxCell>
        <mxCell id="SBu-QnstzUeX8URaXkje-74" style="edgeStyle=orthogonalEdgeStyle;rounded=0;orthogonalLoop=1;jettySize=auto;html=1;" edge="1" parent="1" source="SBu-QnstzUeX8URaXkje-73">
          <mxGeometry relative="1" as="geometry">
            <mxPoint x="240" y="240" as="targetPoint" />
          </mxGeometry>
        </mxCell>
        <mxCell id="SBu-QnstzUeX8URaXkje-73" value="F. FIN CONTRATO" style="ellipse;whiteSpace=wrap;html=1;fillColor=#ffff88;strokeColor=#36393d;" vertex="1" parent="1">
          <mxGeometry x="260" y="320" width="80" height="70" as="geometry" />
        </mxCell>
      </root>
    </mxGraphModel>
  </diagram>
</mxfile>
